<svg width="395" height="495" viewBox="0 0 395 495" fill="none" xmlns="http://www.w3.org/2000/svg">
<path d="M193.469 408.649C199.786 403.916 207.722 402.007 215.485 403.58C229.119 406.348 238.934 419.023 238.934 433.729V434.407C238.934 442.886 235.73 450.999 230.044 456.919L229.485 457.485L195.609 490.972L195.607 490.974L195.124 491.447L195.123 491.446C193.448 493.097 191.237 494.039 188.934 494.039C186.635 494.039 184.422 493.122 182.745 491.447L182.261 490.974L182.26 490.972L148.384 457.485C142.349 451.522 138.934 443.159 138.934 434.407V433.729C138.934 419.023 148.749 406.369 162.383 403.601L163.11 403.461C170.641 402.128 178.281 404.065 184.4 408.65L184.402 408.652C186.02 409.877 187.538 411.279 188.929 412.87C189.646 412.038 190.405 411.263 191.206 410.535L191.756 410.041C192.309 409.555 192.878 409.09 193.469 408.649ZM181.629 420.527C177.275 415.331 170.71 412.975 164.323 414.274C155.566 416.055 149.216 424.189 149.216 433.729V434.407C149.216 439.965 151.328 445.29 155.045 449.159L155.409 449.529L188.934 482.668L222.46 449.529L222.824 449.159C226.54 445.29 228.653 439.965 228.653 434.407V433.729C228.653 424.358 222.5 416.31 213.973 414.362L213.565 414.274C207.179 412.975 200.594 415.352 196.26 420.527L196.191 420.608L196.182 420.612L192.779 424.685L192.778 424.684C192.733 424.743 192.688 424.792 192.663 424.819C192.626 424.859 192.617 424.87 192.611 424.878L192.591 424.906L192.566 424.933C191.605 425.956 190.295 426.53 188.934 426.53C187.574 426.53 186.264 425.956 185.302 424.933L185.167 424.788V424.769C185.133 424.726 185.105 424.687 185.083 424.656L181.662 420.562L181.637 420.538L181.629 420.527Z" fill="#6FB07D" stroke="#6FB07D"/>
<path d="M139.976 345.88C143.576 354.68 151.712 361.872 152.712 364.039L156.976 350.38C156.309 350.713 153.476 348.58 147.476 337.38C147.476 262.88 90.4757 271.88 72.9757 271.88C65.9757 343.88 128.976 345.88 139.976 345.88Z" fill="#6FB07D"/>
<path d="M158.934 325.539C147.334 346.739 152.142 383.706 156.976 400.039C176.476 396.039 178.434 400.539 188.434 409.039C168.434 377.039 171.934 351.539 178.434 333.539C183.634 319.139 233.268 270.206 257.434 247.539C259.601 245.872 265.034 242.539 269.434 242.539C308.434 245.539 306.934 241.039 326.434 227.039C342.034 215.839 377.934 167.372 393.934 144.539C394.268 143.706 394.634 141.739 393.434 140.539C392.234 139.339 390.268 140.372 389.434 141.039L317.434 211.039C315.934 211.872 312.434 213.039 310.434 211.039C308.434 209.039 309.601 205.539 310.434 204.039L380.434 127.539C380.434 127.039 380.034 125.639 378.434 124.039C376.834 122.439 375.101 122.706 374.434 123.039L301.434 193.539C299.768 194.372 295.934 195.539 293.934 193.539C291.934 191.539 292.434 188.372 292.934 187.039L362.934 112.539C363.321 111.706 363.663 109.607 361.934 107.879C360.206 106.151 357.881 106.266 356.934 106.539L282.934 177.039C281.934 177.548 279.329 177.96 276.908 175.539C274.487 173.118 274.917 170.864 275.434 170.039L345.434 97.0391C346.268 96.0391 347.434 93.5391 345.434 91.5391C343.434 89.5391 340.934 90.7058 339.934 91.5391C326.768 102.372 294.234 129.739 269.434 152.539C238.434 181.039 244.934 197.539 245.934 208.539C246.934 219.539 243.434 227.039 237.934 235.539C211.434 259.539 173.434 299.039 158.934 325.539Z" fill="#6FB07D"/>
<path d="M240.434 344.88C236.834 353.68 230.65 360.872 229.65 363.039L226.934 347.539C227.601 347.872 226.934 347.58 232.934 336.38C232.934 261.88 289.934 270.88 307.434 270.88C314.434 342.88 251.434 344.88 240.434 344.88Z" fill="#6FB07D"/>
<path d="M226.934 347.539C232.434 368.039 231.934 376.539 219.934 401.039C210.934 398.539 202.434 395.039 188.934 409.039C192.934 401.706 200.478 387.952 202.434 384.039C205.934 377.039 204.934 366.039 204.934 354.539C204.934 333.039 173.934 304.539 144.934 272.539C115.934 240.539 109.434 242.539 101.434 242.539C77.9343 246.039 42.9343 241.039 19.4343 202.539C-16.0657 144.539 7.43432 122.039 9.93432 117.539C12.4343 113.039 39.9343 91.0389 91.9343 127.039C143.934 163.039 131.434 202.039 132.434 217.539C133.434 233.039 154.434 251.539 164.434 260.539C211.434 299.039 221.434 327.039 226.934 347.539Z" fill="#6FB07D"/>
<path d="M20.7818 168.447C40.5075 196.183 67.8578 220.374 95.9568 231.583C93.0272 232.863 88.9655 232.99 85.0521 232.731C76.1552 231.483 64.421 226.198 52.9338 216.656C41.4852 207.113 32.3913 195.149 26.7003 184.285C23.6406 178.385 21.6626 172.892 20.7818 168.447Z" fill="white"/>
<path d="M188.852 0.0458984C189.74 -0.102093 190.655 0.117096 191.564 0.573242C192.473 1.02909 193.408 1.7371 194.36 2.61719C196.263 4.37663 198.301 6.89259 200.396 9.67578C204.614 15.279 209.071 21.9686 213.288 26.1855C221.835 34.7326 250.434 70.8524 250.434 117.539C250.434 164.25 215.238 193.476 209.343 201.827C207.276 204.754 204.419 210.338 202.077 216.448C199.732 222.565 197.934 229.133 197.934 234.039V259.723L197.815 259.863L189.315 269.863L188.955 270.287L188.572 269.884L179.072 259.884L178.934 259.738V234.062C178.602 230.759 177.609 225.182 175.708 219.19C173.8 213.178 170.99 206.784 167.044 201.852C157.086 189.405 127.434 157.753 127.434 117.539C127.434 97.4387 133.965 77.113 141.732 60.5762C149.496 44.0461 158.526 31.2407 163.581 26.1855C168.559 21.2075 173.279 14.9939 177.55 9.84473C179.676 7.2801 181.694 4.97714 183.564 3.25C185.418 1.53808 187.198 0.321689 188.852 0.0458984ZM188.587 53.001C186.157 52.7553 184.198 70.2483 182.238 104.539C177.738 95.5391 162.238 80.5391 162.238 86.0391C184.738 111.539 184.238 143.539 182.238 149.039C177.738 138.039 155.239 121.04 152.738 123.539C150.238 126.039 163.738 139.039 173.238 153.039C180.838 164.239 182.405 191.039 182.238 203.039L188.934 215.039L194.934 203.039C194.768 191.039 196.334 164.239 203.934 153.039C213.434 139.039 226.934 126.039 224.434 123.539C221.934 121.039 199.434 138.039 194.934 149.039C192.934 143.539 192.434 111.539 214.934 86.0391C214.934 80.5391 199.434 95.5391 194.934 104.539C192.975 70.253 191.016 52.7602 188.587 53.001Z" fill="#6FB07D"/>
</svg>
